<svg width="40" height="40" viewBox="0 0 40 40" xmlns="http://www.w3.org/2000/svg">

	<!-- 文件夹（极简几何） -->
	<path d="M6 12c0-1.1.9-2 2-2h8l2 2h14c1.1 0 2 .9 2 2v12c0 1.1-.9 2-2 2H8c-1.1 0-2-.9-2-2V12z"
			fill="#1976D2"/>

	<!-- 文件（折角） -->
	<path d="M22 10h6l3 3v7c0 1.1-.9 2-2 2h-7c-1.1 0-2-.9-2-2v-8c0-1.1.9-2 2-2z"
			fill="#FFFFFF"/>

	<!-- 折角 -->
	<path d="M28 10v3h3" fill="none" stroke="#1976D2" stroke-width="1.2"/>

	<!-- Atom / 核心符号（极简版） -->
	<g transform="translate(25.5 16)">
		<!-- 核心 -->
		<circle r="0.8" fill="#00C4B3"/>

		<!-- 轨道（两条就够，避免杂乱） -->
		<ellipse rx="3" ry="1.1" fill="none" stroke="#00C4B3" stroke-width="0.5"/>
		<ellipse rx="3" ry="1.1" fill="none" stroke="#00C4B3" stroke-width="0.5" transform="rotate(60)"/>
	</g>

</svg>